HIERARCHY
ROOT ui
{
	 OFFSET 0 0 0
	 CHANNELS 3 XPosition YPosition Z Position
	 EndSite
	 {
	 OFFSET 0 -1 0
	 }
}
ROOT li
{
	 OFFSET 0 0 0
	 CHANNELS 3 XPosition YPosition Z Position
	 EndSite
	 {
	 OFFSET 0 -1 0
	 }
}
ROOT ul
{
	 OFFSET 0 0 0
	 CHANNELS 3 XPosition YPosition Z Position
	 EndSite
	 {
	 OFFSET 0 -1 0
	 }
}
ROOT ll
{
	 OFFSET 0 0 0
	 CHANNELS 3 XPosition YPosition Z Position
	 EndSite
	 {
	 OFFSET 0 -1 0
	 }
}
ROOT tt
{
	 OFFSET 0 0 0
	 CHANNELS 3 XPosition YPosition Z Position
	 EndSite
	 {
	 OFFSET 0 -1 0
	 }
}
ROOT tb
{
	 OFFSET 0 0 0
	 CHANNELS 3 XPosition YPosition Z Position
	 EndSite
	 {
	 OFFSET 0 -1 0
	 }
}
ROOT td
{
	 OFFSET 0 0 0
	 CHANNELS 3 XPosition YPosition Z Position
	 EndSite
	 {
	 OFFSET 0 -1 0
	 }
}
ROOT v
{
	 OFFSET 0 0 0
	 CHANNELS 3 XPosition YPosition Z Position
	 EndSite
	 {
	 OFFSET 0 -1 0
	 }
}
ROOT bn
{
	 OFFSET 0 0 0
	 CHANNELS 3 XPosition YPosition Z Position
	 EndSite
	 {
	 OFFSET 0 -1 0
	 }
}
MOTION
Frames: 18
Frame Time: 0.002
1.8394599854946135E-4	1.9860799610614777E-4	0		0.4307108154296875	-2.44823095703125	0		-1.1224296875	0.04443171691894531	0		-0.8318267822265625	-2.595607666015625	0		1.3259742431640624	-0.727101318359375	0		2.997893798828125	-0.04379340362548828	0		4.3916650390625	0.126271484375	0		5.63366357421875	0.3198559265136719	0		-0.36299002075195314	5.88212646484375	0		
-0.08654547119140625	0.01222438907623291	0		0.43965963745117187	-2.445216064453125	0		-1.1122406005859375	0.04758638381958008	0		-0.78692431640625	-2.59583447265625	0		1.335078857421875	-0.7251725463867188	0		2.992095458984375	-0.03887449645996094	0		4.39782177734375	0.12493511199951172	0		5.64393994140625	0.32835888671875	0		-0.3222294921875	5.88590478515625	0		
-0.04458372116088867	9.689930081367492E-4	0		0.4475226745605469	-2.44317529296875	0		-1.1140386962890625	0.05987564468383789	0		-0.8150532836914063	-2.591310546875	0		1.341074462890625	-0.7261962280273437	0		3.019073486328125	-0.04826896667480469	0		4.408826171875	0.11657042694091797	0		5.65003564453125	0.32692666625976563	0		-0.34965621948242187	5.880384765625	0		
-0.04858288192749023	0.009203861236572266	0		0.4511745910644531	-2.4470673828125	0		-1.02831494140625	0.04028452682495117	0		-0.7853546142578125	-2.58935400390625	0		1.3679039306640626	-0.7284073486328125	0		3.040109619140625	-0.03657357406616211	0		4.40169384765625	0.11042687225341796	0		5.660890625	0.3174837951660156	0		-0.30915753173828125	5.8841953125	0		
-0.049956214904785155	0.0024430530071258543	0		0.4556253662109375	-2.449934814453125	0		-1.1105047607421874	0.051449840545654296	0		-0.8168626098632813	-2.586739013671875	0		1.3704962158203124	-0.7323349609375	0		3.005692626953125	-0.04726473617553711	0		4.41230810546875	0.10114834594726563	0		5.66168994140625	0.3241968994140625	0		-0.3029497680664063	5.883384765625	0		
-0.07053693389892578	0.001921576976776123	0		0.46083721923828125	-2.450770751953125	0		-1.1050828857421875	0.05074549102783203	0		-0.7746956176757812	-2.590854736328125	0		1.354864013671875	-0.7320281372070313	0		3.011106201171875	-0.04831483840942383	0		4.42586962890625	0.11289569854736328	0		5.6679462890625	0.3049142150878906	0		-0.2819236755371094	5.893455078125	0		
-0.03236460494995117	0.006827645778656006	0		0.44182888793945313	-2.44430615234375	0		-1.06710693359375	0.036734603881835935	0		-0.829786865234375	-2.59091259765625	0		1.3629482421875	-0.729918701171875	0		3.0452431640625	-0.04661067581176758	0		4.42305322265625	0.11787752532958984	0		5.6781650390625	0.3116604919433594	0		-0.2953026123046875	5.89692578125	0		
-0.02454178810119629	0.01009757137298584	0		0.5023919067382813	-2.448633544921875	0		-0.99518994140625	0.048401798248291016	0		-0.7492252197265625	-2.594357666015625	0		1.3707161865234374	-0.7267526245117187	0		3.04104150390625	-0.04544242095947266	0		4.43577783203125	0.1107632064819336	0		5.67707470703125	0.32060040283203123	0		-0.32029409790039065	5.87656689453125	0		
-0.02314809799194336	0.005485345840454101	0		0.47563699340820315	-2.450983642578125	0		-1.0147603149414062	0.04708148193359375	0		-0.7589271850585938	-2.59080224609375	0		1.3900146484375	-0.735654296875	0		3.00942236328125	-0.05091595077514648	0		4.42716845703125	0.10494663238525391	0		5.67744775390625	0.31160122680664065	0		-0.315448486328125	5.875943359375	0		
-0.02309514617919922	0.0019394479990005493	0		0.5065387268066406	-2.453895263671875	0		-0.9987808227539062	0.03642867279052735	0		-0.7570328979492188	-2.59332177734375	0		1.39405126953125	-0.7363355102539062	0		3.061490234375	-0.0532186393737793	0		4.431259765625	0.10406737518310546	0		5.677466796875	0.30268389892578124	0		-0.31098074340820314	5.875373046875	0		
-0.019361862182617186	0.0014059489965438843	0		0.4821247253417969	-2.454158203125	0		-1.08292138671875	0.047904903411865235	0		-0.7435440673828125	-2.601918212890625	0		1.3977398681640625	-0.7369549560546875	0		3.033232666015625	-0.05259334182739258	0		4.43605322265625	0.10825267791748047	0		5.689390625	0.3177173156738281	0		-0.29178408813476564	5.8846943359375	0		
-0.015975083351135254	9.270539879798889E-4	0		0.48842822265625	-2.449697998046875	0		-1.067641357421875	0.037355735778808595	0		-0.7722250366210938	-2.59500927734375	0		1.3621419677734374	-0.7320896606445313	0		3.068603759765625	-0.05459069442749023	0		4.4514453125	0.10739405822753906	0		5.69868603515625	0.3068543395996094	0		-0.28806805419921877	5.88423046875	0		
-0.00584911298751831	0.007424704074859619	0		0.49337460327148436	-2.44817138671875	0		-1.0633603515625	0.05797183227539063	0		-0.7402113037109375	-2.58671337890625	0		1.4071300048828126	-0.7350440673828125	0		3.039663818359375	-0.053824703216552736	0		4.44957763671875	0.11379422760009765	0		5.695861328125	0.3162014770507813	0		-0.25065371704101563	5.88944775390625	0		
-0.010198641777038574	1.2748399376869202E-4	0		0.49193328857421875	-2.453524658203125	0		-1.0737509765625	0.046789512634277344	0		-0.779634765625	-2.58959326171875	0		1.385802001953125	-0.7372205200195312	0		3.074374755859375	-0.055690601348876954	0		4.44909033203125	0.09324799346923827	0		5.7086015625	0.31545391845703125	0		-0.29682748413085935	5.87362255859375	0		
-0.0037470529079437257	0.0027579550743103026	0		0.4942508239746094	-2.45387060546875	0		-0.9953458862304687	0.044671855926513675	0		-0.7403580932617188	-2.593293701171875	0		1.4091781005859374	-0.73883447265625	0		3.040738525390625	-0.06074682235717774	0		4.4515126953125	0.09273858642578126	0		5.6969462890625	0.30704705810546873	0		-0.2610802001953125	5.8809453125	0		
-0.01172772216796875	-0.0074111027717590336	0		0.4962906799316406	-2.454168701171875	0		-1.0573106689453124	0.03613494110107422	0		-0.8112526245117188	-2.586741455078125	0		1.3902926025390625	-0.7379341430664063	0		3.07486328125	-0.06149081802368164	0		4.45364501953125	0.09229660034179688	0		5.69908642578125	0.306559814453125	0		-0.2767142639160156	5.88287353515625	0		
2.4103200435638428E-4	0.0022399721145629882	0		0.50010546875	-2.45144482421875	0		-1.0473736572265624	0.04284122085571289	0		-0.7225911254882813	-2.59791650390625	0		1.395161376953125	-0.7352492065429688	0		3.07781982421875	-0.05283708953857422	0		4.4726279296875	0.10272970581054687	0		5.70504345703125	0.3140978698730469	0		-0.22649620056152345	5.89811181640625	0		
0.004895103931427002	0.006007672786712647	0		0.5056939697265626	-2.447701416015625	0		-1.0407186279296874	0.04661470031738281	0		-0.8008460083007812	-2.579209228515625	0		1.3997957763671875	-0.7315187377929687	0		3.0823837890625	-0.057151084899902345	0		4.46526318359375	0.10451126861572266	0		5.70666162109375	0.31374676513671873	0		-0.23883900451660156	5.8880751953125	0		
